<?xml version="1.0" encoding="utf-8"?><svg viewBox="0 0 502.66 502.66" xmlns="http://www.w3.org/2000/svg" xmlns:xlink="http://www.w3.org/1999/xlink"><style>:root>svg{display:none}:root>svg:target{display:block}</style><svg viewBox="0 0 48 48" id="bathtub" xmlns="http://www.w3.org/2000/svg"><path d="M13.65 18.05q-1.5 0-2.575-1.075Q10 15.9 10 14.4q0-1.5 1.075-2.575 1.075-1.075 2.575-1.075 1.5 0 2.575 1.075Q17.3 12.9 17.3 14.4q0 1.5-1.075 2.575-1.075 1.075-2.575 1.075zM9.3 44q-.9 0-1.6-.575Q7 42.85 7 42q-1.25 0-2.125-.875T4 39V26h6v-1.4q0-1.75 1.25-3t3-1.25q.95 0 1.8.35.85.35 1.5 1.05l2.6 2.95q.35.4.725.725.375.325.775.575H36V9.3q0-.95-.625-1.625T33.8 7q-.5 0-.95.1-.45.1-.8.45l-2.6 2.6q.25.85.075 1.725-.175.875-.625 1.675L23.8 8.7q.8-.55 1.75-.7.95-.15 1.85.2L30 5.65q.75-.75 1.725-1.2Q32.7 4 33.8 4q2.2 0 3.7 1.55T39 9.3V26h5v13q0 1.25-.875 2.125T41 42q0 .85-.7 1.425-.7.575-1.65.575zM7 39h34V29H7v10zm34 0H7z"/></svg><svg viewBox="0 0 48 48" id="bed" xmlns="http://www.w3.org/2000/svg"><path d="M4 38V25.25q0-1.25.5-2.35T6 21.1v-5.8q0-2.25 1.525-3.775T11.3 10h9q1.1 0 2.05.5.95.5 1.65 1.35.7-.85 1.625-1.35.925-.5 2.025-.5h9q2.25 0 3.8 1.525Q42 13.05 42 15.3v5.8q1 .7 1.5 1.8t.5 2.35V38h-3v-4H7v4zm21.5-17.75H39V15.3q0-1-.675-1.65Q37.65 13 36.65 13H27.5q-.85 0-1.425.7-.575.7-.575 1.6zm-16.5 0h13.5V15.3q0-.9-.575-1.6-.575-.7-1.425-.7h-9.2q-.95 0-1.625.675T9 15.3z"/></svg><svg viewBox="0 0 48 48" id="expand-more" xmlns="http://www.w3.org/2000/svg"><path d="M24 30.75l-12-12 2.15-2.15L24 26.5l9.85-9.85L36 18.8z"/></svg><svg viewBox="0 0 24 24" id="fb" xmlns="http://www.w3.org/2000/svg"><path d="M16.5 6h-3a1 1 0 00-1 1v3h4a.35.35 0 01.34.46l-.74 2.2a.5.5 0 01-.47.34H12.5v7.5a.5.5 0 01-.5.5H9.5a.5.5 0 01-.5-.5V13H7.5a.5.5 0 01-.5-.5v-2a.5.5 0 01.5-.5H9V7a4 4 0 014-4h3.5a.5.5 0 01.5.5v2a.5.5 0 01-.5.5z"/></svg><svg viewBox="0 0 502.664 502.664" id="icon" xmlns="http://www.w3.org/2000/svg"><path d="M153.821 358.226L0 274.337v-46.463l153.821-83.414v54.574L46.636 250.523l107.185 53.431v54.272zm26.273 29.358L282.103 115.08h32.227L212.084 387.584h-31.99zm168.749-29.358v-54.272l107.164-52.999-107.164-52.59v-53.927l153.821 83.522v46.183l-153.821 84.083z"/></svg><svg viewBox="0 0 24 24" id="insta" xmlns="http://www.w3.org/2000/svg"><path fill-rule="evenodd" clip-rule="evenodd" d="M16 3H8a5 5 0 00-5 5v8a5 5 0 005 5h8a5 5 0 005-5V8a5 5 0 00-5-5zm3.25 13A3.26 3.26 0 0116 19.25H8A3.26 3.26 0 014.75 16V8A3.26 3.26 0 018 4.75h8A3.26 3.26 0 0119.25 8v8zm-2.5-7.75a1 1 0 100-2 1 1 0 000 2zM12 7.5a4.5 4.5 0 104.5 4.5A4.49 4.49 0 0012 7.5zM9.25 12a2.75 2.75 0 105.5 0 2.75 2.75 0 00-5.5 0z"/></svg><svg viewBox="0 0 24 24" id="link" xmlns="http://www.w3.org/2000/svg"><path fill-rule="evenodd" clip-rule="evenodd" d="M5 3h14a2 2 0 012 2v14a2 2 0 01-2 2H5a2 2 0 01-2-2V5a2 2 0 012-2zm3 15a.5.5 0 00.5-.5v-7A.5.5 0 008 10H6.5a.5.5 0 00-.5.5v7a.5.5 0 00.5.5H8zm-.75-9a1.5 1.5 0 110-3 1.5 1.5 0 010 3zm10.25 9a.5.5 0 00.5-.5v-4.6a3.1 3.1 0 00-2.72-3.14 3 3 0 00-2.78 1.34v-.6a.5.5 0 00-.5-.5h-1.5a.5.5 0 00-.5.5v7a.5.5 0 00.5.5H12a.5.5 0 00.5-.5v-3.75a1.5 1.5 0 013 0v3.75a.5.5 0 00.5.5h1.5z"/></svg><svg viewBox="0 0 48 48" id="location" xmlns="http://www.w3.org/2000/svg"><path d="M24 23.5q1.45 0 2.475-1.025Q27.5 21.45 27.5 20q0-1.45-1.025-2.475Q25.45 16.5 24 16.5q-1.45 0-2.475 1.025Q20.5 18.55 20.5 20q0 1.45 1.025 2.475Q22.55 23.5 24 23.5zm0 16.55q6.65-6.05 9.825-10.975Q37 24.15 37 20.4q0-5.9-3.775-9.65T24 7q-5.45 0-9.225 3.75Q11 14.5 11 20.4q0 3.75 3.25 8.675Q17.5 34 24 40.05zM24 44q-8.05-6.85-12.025-12.725Q8 25.4 8 20.4q0-7.5 4.825-11.95Q17.65 4 24 4q6.35 0 11.175 4.45Q40 12.9 40 20.4q0 5-3.975 10.875T24 44zm0-23.6z"/></svg><svg viewBox="0 0 24 24" id="search" xmlns="http://www.w3.org/2000/svg"><path fill-rule="evenodd" clip-rule="evenodd" d="M16.875 15.455l4 4.005a.501.501 0 01-.02.691l-.7.7a.5.5 0 01-.71 0l-4-4.004a2.612 2.612 0 01-.3-.36l-.75-1.001a6.995 6.995 0 01-4.37 1.531A7.011 7.011 0 016.973 3.69a6.995 6.995 0 018.518 1.971 7.015 7.015 0 01-.046 8.753l1 .691c.156.1.3.218.43.35zM5.025 10.01a5.003 5.003 0 005 5.006 4.997 4.997 0 003.535-1.466 5.009 5.009 0 00-3.535-8.546c-2.761 0-5 2.241-5 5.006z"/></svg><svg viewBox="0 0 48 48" id="shopping-bag" xmlns="http://www.w3.org/2000/svg"><path d="M11 44q-1.2 0-2.1-.9Q8 42.2 8 41V15q0-1.2.9-2.1.9-.9 2.1-.9h5.5v-.5q0-3.15 2.175-5.325Q20.85 4 24 4q3.15 0 5.325 2.175Q31.5 8.35 31.5 11.5v.5H37q1.2 0 2.1.9.9.9.9 2.1v26q0 1.2-.9 2.1-.9.9-2.1.9zm7-23q.65 0 1.075-.425.425-.425.425-1.075V15h-3v4.5q0 .65.425 1.075Q17.35 21 18 21zm1.5-9h9v-.5q0-1.9-1.3-3.2Q25.9 7 24 7q-1.9 0-3.2 1.3-1.3 1.3-1.3 3.2zM30 21q.65 0 1.075-.425.425-.425.425-1.075V15h-3v4.5q0 .65.425 1.075Q29.35 21 30 21z"/></svg><svg viewBox="0 0 48 48" id="square" xmlns="http://www.w3.org/2000/svg"><path d="M10 42q-1.65 0-2.825-1.175Q6 39.65 6 38V11.05Q6 9.2 7.725 8.5q1.725-.7 3.075.65l2.25 2.25-2.1 2.1 1.35 1.35 2.1-2.1 5.85 5.85-2.1 2.1 1.35 1.35 2.1-2.1 5.9 5.9-2.1 2.1 1.35 1.35 2.1-2.1 5.85 5.85-2.1 2.1 1.35 1.35 2.1-2.1 2.25 2.25q1.5 1.5.75 3.425Q38.3 42 36.3 42zm0-4h23.15L10 14.85V38z"/></svg><svg viewBox="0 0 20 20" id="star" xmlns="http://www.w3.org/2000/svg"><path d="M9.07.645a.992.992 0 011.86 0l2.028 5.072c.145.362.473.61.849.641l5.266.44c.892.074 1.254 1.232.574 1.837l-4.012 3.574a1.071 1.071 0 00-.324 1.038l1.225 5.343c.208.906-.74 1.622-1.503 1.136l-4.508-2.863a.973.973 0 00-1.05 0l-4.508 2.863c-.764.486-1.711-.23-1.503-1.136l1.225-5.343a1.071 1.071 0 00-.324-1.038L.353 8.635c-.68-.605-.318-1.763.574-1.838l5.266-.439a1.01 1.01 0 00.85-.64L9.07.644z"/></svg><svg viewBox="0 0 24 24" id="tw" xmlns="http://www.w3.org/2000/svg"><path d="M20.973 6.717a7.19 7.19 0 01-1.663 1.6v.495a10.972 10.972 0 01-3.258 7.822A10.96 10.96 0 018.194 19.8a10.994 10.994 0 01-4.898-1.133.225.225 0 01-.134-.207v-.099c0-.129.104-.233.233-.233a7.96 7.96 0 004.601-1.655A3.927 3.927 0 014.5 14.171a.234.234 0 01.234-.324c.46.046.923.004 1.366-.126A3.92 3.92 0 013 10.296a.234.234 0 01.323-.234c.448.197.931.302 1.42.306a3.849 3.849 0 01-1.537-4.442.485.485 0 01.818-.162 11.105 11.105 0 007.558 3.489 3.604 3.604 0 01-.108-.9 3.917 3.917 0 016.749-2.643 7.807 7.807 0 002.148-.746c.05-.03.112-.03.161 0a.153.153 0 010 .162 3.928 3.928 0 01-1.581 1.798 7.709 7.709 0 001.797-.431.144.144 0 01.162 0 .153.153 0 01.063.224z"/></svg></svg>